<svg xmlns="http://www.w3.org/2000/svg" width="30" height="30" viewBox="0 0 30 30"><defs><style>.a{fill:#ce0e16;}.b{fill:#fff;}</style></defs><g transform="translate(-0.18 -0.18)"><circle class="a" cx="15" cy="15" r="15" transform="translate(0.18 0.18)"/><g transform="translate(3.68 12.18)"><g transform="translate(0.25 0)"><path class="b" d="M68.431,74.069h.6a.066.066,0,0,0,.071-.061v-.979a.067.067,0,0,0-.071-.062h-.844c-.976,0-1.494.27-1.789.844L64.564,77.7a.564.564,0,0,1-.588.342V73.029a.067.067,0,0,0-.072-.062H62.556a.067.067,0,0,0-.072.062v6a.119.119,0,0,0,.126.108h1.512c.975,0,1.422-.27,1.717-.842l1.811-3.837A.75.75,0,0,1,68.431,74.069Z" transform="translate(-46.519 -72.967)"/><path class="b" d="M44.637,76.054a1.392,1.392,0,0,0,.99-1.355c0-1.078-1.071-1.733-2.361-1.733H39.279a.067.067,0,0,0-.071.062v.979a.066.066,0,0,0,.071.061H42.99c.6,0,1,.316,1,.706s-.4.706-1,.706h-2.2v-.728a.067.067,0,0,0-.071-.061H39.279a.067.067,0,0,0-.071.061v4.325a.067.067,0,0,0,.071.061h3.93c1.469,0,2.52-.592,2.52-1.8A1.365,1.365,0,0,0,44.637,76.054Zm-1.571,2.011H40.785V76.617h2.281c.615,0,1.03.325,1.03.724S43.681,78.065,43.066,78.065Z" transform="translate(-39.208 -72.967)"/><path class="b" d="M71.835,80.692l-2.312-2.556a.012.012,0,0,0-.021,0l-.623,1.315a.022.022,0,0,0,0,.024l1.011,1.172a.328.328,0,0,0,.273.112H71.8C71.844,80.762,71.863,80.723,71.835,80.692Z" transform="translate(-48.527 -74.589)"/><path class="b" d="M51.757,75.482H50.406a.067.067,0,0,0-.071.061v4.325a.067.067,0,0,0,.071.061h1.351a.067.067,0,0,0,.071-.061V75.543A.067.067,0,0,0,51.757,75.482Z" transform="translate(-42.703 -73.757)"/><path class="b" d="M57.31,72.967h-1.35a.066.066,0,0,0-.07.062v5.009A.562.562,0,0,1,55.3,77.7l-1.836-3.885c-.3-.574-.813-.844-1.789-.844H50.406a.067.067,0,0,0-.071.062v.979a.066.066,0,0,0,.071.061h1.029a.751.751,0,0,1,.78.392L54.026,78.3c.3.572.741.842,1.717.842h1.513a.117.117,0,0,0,.124-.108v-6A.066.066,0,0,0,57.31,72.967Z" transform="translate(-42.703 -72.967)"/></g></g></g></svg>