<svg xmlns="http://www.w3.org/2000/svg" width="30" height="30" viewBox="0 0 30 30"><defs><style>.a{fill:#145198;}.b{fill:#fff;}.c{fill:#007ec0;}.d{fill:#db2422;}.e{fill:#004187;}</style></defs><g transform="translate(-0.18 -0.18)"><circle class="a" cx="15" cy="15" r="15" transform="translate(0.18 0.18)"/><g transform="translate(6.859 7.47)"><path class="b" d="M27.37,133.754a1.807,1.807,0,0,0-.893,1.064l-2.852,8.85a1.878,1.878,0,0,0,.1,1.407,1.8,1.8,0,0,0,1.03.921l9.354,3.242a1.722,1.722,0,0,0,1.363-.1,1.807,1.807,0,0,0,.892-1.066l2.853-8.848a1.858,1.858,0,0,0-1.129-2.33l-9.353-3.241a1.719,1.719,0,0,0-1.363.1" transform="translate(-23.532 -133.557)"/><path class="c" d="M32.217,142.545a4.887,4.887,0,0,1-1.876,1.35l-.422.169v-4.1l.417.167a4.9,4.9,0,0,1,1.881,1.345,4.52,4.52,0,0,0,.635-2.066,4.464,4.464,0,0,0-2.715-4.4l-1.351-.464a1.147,1.147,0,0,0-1.46.765l-2.86,8.855a1.218,1.218,0,0,0,.75,1.521l6.492,2.238a4.548,4.548,0,0,0,.51-5.382m-3.752,1.772H27.82v-4.6h.644Z" transform="translate(-23.806 -133.849)"/><path class="d" d="M34.649,144.962a4.359,4.359,0,0,0-1.306-1.077v2.161a4.337,4.337,0,0,0,1.306-1.084" transform="translate(-26.613 -136.801)"/><path class="e" d="M41.721,138.342l-5.957-2.055a5.165,5.165,0,0,1,1.292,3.421,5.22,5.22,0,0,1-.859,2.868,5.2,5.2,0,0,1-.285,6.138l2.237.771a1.148,1.148,0,0,0,1.461-.767l2.862-8.854a1.22,1.22,0,0,0-.751-1.521m-1.578,6.526-.8,0-1.656-2.3,1.682-2.3.812,0-1.685,2.3Z" transform="translate(-27.373 -134.414)"/></g></g></svg>