<svg xmlns="http://www.w3.org/2000/svg" width="30" height="30" viewBox="0 0 30 30"><defs><style>.a{fill:#f9df00;}.b{fill:#1e1719;}</style></defs><g transform="translate(-0.18 -0.18)"><circle class="a" cx="15" cy="15" r="15" transform="translate(0.18 0.18)"/><g transform="translate(10.975 8.841)"><path class="b" d="M50.556,47.694a3.341,3.341,0,0,0-1.117-2.11c-.093-.083-.19-.16-.3-.252.09-.07.166-.124.237-.185a3.489,3.489,0,0,0,.995-1.42,3.41,3.41,0,0,0-.644-3.452,3.242,3.242,0,0,0-1.165-.851,3.432,3.432,0,0,0-1.359-.266H41.989a.943.943,0,0,0-.108,0,.223.223,0,0,0-.209.231c0,.037,0,.075,0,.112q0,5.813,0,11.625c0,.059,0,.117,0,.176a.2.2,0,0,0,.173.195.646.646,0,0,0,.108,0h5.4a2.989,2.989,0,0,0,1.551-.427,3.377,3.377,0,0,0,1.466-1.752A3.292,3.292,0,0,0,50.556,47.694Zm-4.151.418h-.975V42.563h.964s0,0,0,0v0h.011Z" transform="translate(-41.671 -39.159)"/></g></g></svg>