<svg xmlns="http://www.w3.org/2000/svg" width="30" height="30" viewBox="0 0 30 30"><defs><style>.a{fill:#fcce2f;}.b{fill:#1a1311;}</style></defs><g transform="translate(-0.18 -0.18)"><circle class="a" cx="15" cy="15" r="15" transform="translate(0.18 0.18)"/><g transform="translate(6.173 8.841)"><path class="b" d="M96.6,39.663a23.131,23.131,0,0,0,.316,3.9.071.071,0,0,0,.007.022c.184.262.375,1.3.526,1.627a.1.1,0,0,0,.033.032,1.362,1.362,0,0,0,.7.18.027.027,0,0,0,.029-.025,4.123,4.123,0,0,0-.012-1.014c-.082-1.214-.173-3.145-.158-4.316.974.529,4.626,3.083,6.532,3.61a.125.125,0,0,0,.12-.024.669.669,0,0,1,.28-.169.352.352,0,0,0,.1-.318,5.329,5.329,0,0,0,3.759-1.571,1.749,1.749,0,0,0,.217-2.117,1.311,1.311,0,0,1-.157-.1,2.787,2.787,0,0,0-2.2-.661,4.389,4.389,0,0,0-2.06.721s0,0-.007,0c-.044-.792.282-1.8,0-2.45a.056.056,0,0,0-.059-.035,2.118,2.118,0,0,0-.856.269.1.1,0,0,0-.038.084,5.046,5.046,0,0,1-.156,1.241c-.017.018-.012.036-.017.075a13.872,13.872,0,0,0-.008,2.975.518.518,0,0,0,.257.193,2.011,2.011,0,0,0,.8-.161.5.5,0,0,1,.125-.021c.034,0,.047-.041.044-.078a1.42,1.42,0,0,1,.008-.273,2.616,2.616,0,0,1,1.926-1.838,1.385,1.385,0,0,1,1.309.417,1.584,1.584,0,0,1-.189,1.311,2.66,2.66,0,0,1-1.454,1.125,5.669,5.669,0,0,1-2.214.3,20.438,20.438,0,0,0-3.058-1.839,3.4,3.4,0,0,1-.617-.433c-.526-.413-1.651-1.128-2.321-1.567-.005,0-.005-.009-.005-.019a.311.311,0,0,1,.009-.137.1.1,0,0,1,.052-.057,14.709,14.709,0,0,0,1.31-.8.591.591,0,0,1,.111-.073c1.488-.879,4.1-2.07,5.238-3.221a.1.1,0,0,0,.016-.067.5.5,0,0,1,.022-.139.688.688,0,0,0,.012-.43.067.067,0,0,0-.045-.047,3.127,3.127,0,0,0-2.17.991,2.6,2.6,0,0,1-.6.39c-.853.473-2.873,1.695-3.837,2.3-.013.008-.025,0-.024-.012a30.848,30.848,0,0,1,.517-3.895.118.118,0,0,0-.018-.088c-.078-.116-.125-.253-.153-.282a.035.035,0,0,0-.013-.01.567.567,0,0,0-.415-.023c-.121.027-.27.121-.462.166a.065.065,0,0,0-.05.039,15.41,15.41,0,0,0-.966,4.51c0,.005,0,.015-.01.009a22.583,22.583,0,0,0-2.349-1.272.131.131,0,0,0-.036-.009,1.756,1.756,0,0,1-.576-.26c-.213-.124-.628-.411-.888-.558a.13.13,0,0,0-.088-.02,1.637,1.637,0,0,0-.761.5c-.039.057.041.183.031.26a.026.026,0,0,0,.008.023,7.741,7.741,0,0,0,1.556,1.026c.784.412,1.583.8,1.914,1.008a.045.045,0,0,1,.019.021.633.633,0,0,0,.178.131,1.622,1.622,0,0,1,.234.141c.021.019.011.04-.011.055-.83.563-2.478,1.607-3.264,2.121-.116.074-.562.267-.653.3a.849.849,0,0,0-.451.358c-.014.028,0,.043.026.049.127.035.157.122.245.156a.356.356,0,0,0,.1.012,3.1,3.1,0,0,0,.97-.324c.589-.255,2.423-1.352,2.644-1.477a.021.021,0,0,1,.015,0,.567.567,0,0,0,.3-.151,3.27,3.27,0,0,1,.52-.3l.3-.161Z" transform="translate(-91.479 -33.079)"/></g></g></svg>