<svg xmlns="http://www.w3.org/2000/svg" xmlns:xlink="http://www.w3.org/1999/xlink" width="30" height="30" viewBox="0 0 30 30"><defs><style>.a{fill:#e64f6c;}.b{clip-path:url(#a);}.c{fill:#fd5373;}.d{fill:#fff;}</style><clipPath id="a"><circle class="a" cx="15" cy="15" r="15" transform="translate(0.18 0.18)"/></clipPath></defs><g transform="translate(-0.18 -0.18)"><circle class="a" cx="15" cy="15" r="15" transform="translate(0.18 0.18)"/><g class="b"><g transform="translate(8.231 8.149)"><g transform="translate(0 0)"><path class="c" d="M22.616,51.23H13.281v1.1h9.335V63.86H13.281v1.1H23.745V51.23Z" transform="translate(-11.399 -51.23)"/><rect width="1.129" height="8.407" transform="translate(0 2.643)"/><path d="M18.53,55.081H17.175l-3.839,4.194,3.839,4.213H18.53l-3.839-4.213Z" transform="translate(-11.416 -52.437)"/></g><path class="d" d="M11.217,13.73H1.882v-1.1h9.335V1.1H1.882V0H12.346V13.73ZM5.76,11.05,1.92,6.837,5.76,2.643H7.115L3.275,6.837l3.84,4.213ZM0,11.05V2.643H1.13V11.05Z" transform="translate(0 0)"/></g></g></g></svg>