<svg xmlns="http://www.w3.org/2000/svg" width="30" height="30" viewBox="0 0 30 30"><defs><style>.a{fill:#15937a;}.b{fill:#fff;}</style></defs><g transform="translate(-0.18 -0.18)"><circle class="a" cx="15" cy="15" r="15" transform="translate(0.18 0.18)"/><g transform="translate(7.545 8.156)"><path class="b" d="M168.234,220.989l-.3.044-.275.073-.249.093-.227.105-.2.116-.315.221-.194.174-.069.07-.225.318-.18.319-.136.315-.1.313-.065.3-.033.29-.009.276.009.259.068.458.093.354.118.31.108.175.112.144.113.117.115.1.226.123.211.058.185.01.145-.017.131-.039.117-.055.1-.068.074-.078.058-.084.074-.184.026-.189-.006-.176-.021-.15-.035-.135-.039-.374.012-.313L167.7,224l.071-.2.08-.151.074-.1.076-.078.154-.09.146-.064.134-.033.127-.014.226.03.186.082.146.111.108.108.086.119.128.261.088.323.047.373.012.418-.015.442-.038.461-.137.94-.172.882-.172.737-.183.694-.051.2v.129l.035.073.06.032.134-.013.07-.024.049.041.048.017.091-.023.067-.051.026-.027.334-.362.3-.378.264-.393.23-.4.2-.4.17-.4.269-.754.178-.667.109-.532.068-.481.034-.46-.01-.419-.05-.383-.077-.349-.108-.314-.129-.28-.141-.25-.153-.217-.156-.189-.155-.158-.277-.238-.2-.139-.076-.042-.4-.19-.376-.133-.358-.077-.341-.029Zm8.182-3.943-.489.175-.853.273-1.169.363-.688.173-.659.133-.612.1-.543.065-.807.061-.305.011-.716.021-.79-.013-1.6-.094-1.263-.114-.516-.056-1.463-.2-.892-.115-.565-.07-.6-.027-.36-.03h-.239l-.178.037-.129.068-.084.08-.052.087-.028.079-.011.075,0,.172-.029.171-.059.184.011.168.042.162.067.161.087.15.219.282.253.248.249.2.223.155.217.132.237.107.143.1.066.068.019.028.046.053.054.044.145.058.168.03.176.009.307-.019.135-.02,1.046-.156.871-.111.821-.087,1.315-.111,1.175-.12,1.018-.125.854-.122,1.181-.195.41-.079.766-.21.686-.21.6-.21.532-.209.462-.2.4-.2.34-.188.282-.175.418-.311.252-.244.126-.159.034-.056.008-.074-.013-.056-.028-.039-.036-.023-.078-.021-.036,0-.123.03-.078,0-.056-.027-.138-.057-.1,0Zm-7.635-2.421-.107.022h-.046l-.262.02-.224.05-.2.07-.169.092-.143.109-.119.117-.1.126-.076.133-.107.255-.057.224-.023.22.023.23.055.2.073.178.084.146.153.2.07.067.184.131.179.092.174.069.17.039.312.011.277-.049.228-.087.175-.095.151-.113.137-.167.109-.162.082-.155.06-.148.054-.268-.007-.232-.045-.185-.062-.14-.076-.118-.1-.086-.049-.086-.016-.09.035-.2.014-.134-.044-.122-.1-.086-.13-.053-.149-.028-.275-.011Z" transform="translate(-160.724 -214.616)"/></g></g></svg>