<svg xmlns="http://www.w3.org/2000/svg" width="30" height="30" viewBox="0 0 30 30"><defs><style>.a{fill:#33a54e;}.b{fill:#ffb200;}</style></defs><g transform="translate(-0.18 -0.18)"><circle class="a" cx="15" cy="15" r="15" transform="translate(0.18 0.18)"/><g transform="translate(8.917 8.156)"><g transform="translate(0 0)"><path class="b" d="M25.55,10.129l-3.827,1.543-.6,1.114a.168.168,0,0,1-.024-.009L19.753,15.34a3.06,3.06,0,0,1,2.9,2.961,3.175,3.175,0,0,1-6.338,0,3.038,3.038,0,0,1,2.73-2.94l-1.384-2.6-.606-1.131-3.831-1.543v2.791l2.207.987A5.629,5.629,0,0,0,13.2,18.3a5.966,5.966,0,0,0,6.147,5.765A5.964,5.964,0,0,0,25.5,18.3a5.619,5.619,0,0,0-2.165-4.389l2.219-.99Z" transform="translate(-13.204 -9.662)"/><path class="b" d="M17.919,9.469l3.01,1.6L23.884,9.49l-3.007,5.57Z" transform="translate(-14.685 -9.469)"/></g></g></g></svg>