<svg xmlns="http://www.w3.org/2000/svg" xmlns:xlink="http://www.w3.org/1999/xlink" width="30" height="30" viewBox="0 0 30 30"><defs><style>.a{fill:#108dc7;}.b{clip-path:url(#a);}.c{fill:#fff;}</style><clipPath id="a"><circle class="a" cx="15" cy="15" r="15" transform="translate(0.18 0.18)"/></clipPath></defs><g transform="translate(-0.18 -0.18)"><circle class="a" cx="15" cy="15" r="15" transform="translate(0.18 0.18)"/><g class="b"><g transform="translate(7.545 8.149)"><path class="c" d="M36.873,61.485a4.47,4.47,0,0,0-1.038.122,2.271,2.271,0,0,1-.165,2.181,2.09,2.09,0,1,1-.979,3.243v2.914a4.418,4.418,0,0,0,2.181.573,4.517,4.517,0,0,0,0-9.033" transform="translate(-26.261 -57.474)"/><path class="c" d="M27.414,68.051a2.083,2.083,0,0,1-1.765-3.171,4.968,4.968,0,0,1-.678-2.765,4.522,4.522,0,0,0,1.908,8.6,4.419,4.419,0,0,0,2.181-.573V67.229a2.062,2.062,0,0,1-1.647.822" transform="translate(-22.401 -57.672)"/><path class="c" d="M35.831,59.507a4.613,4.613,0,1,0-8.594,3.009,2.059,2.059,0,0,1,2.189-.56,2.254,2.254,0,0,1,1.863-3.491,2.217,2.217,0,0,1,1.831.973,4.924,4.924,0,0,1,2.711.069" transform="translate(-23.744 -55.643)"/></g></g></g></svg>