<svg xmlns="http://www.w3.org/2000/svg" xmlns:xlink="http://www.w3.org/1999/xlink" width="30" height="30" viewBox="0 0 30 30"><defs><style>.a{fill:#f4f8fb;}.b{clip-path:url(#a);}.c{fill:#6bacd2;}.d{fill:#aace8e;}.e{fill:#299527;}.f{fill:#0060a1;}</style><clipPath id="a"><circle class="a" cx="15" cy="15" r="15" transform="translate(0.18 0.18)"/></clipPath></defs><g transform="translate(-0.18 -0.18)"><circle class="a" cx="15" cy="15" r="15" transform="translate(0.18 0.18)"/><g class="b"><g transform="translate(9.603 6.776)"><path class="c" d="M95.583,181.966a2.534,2.534,0,0,1-1.269.411,2.063,2.063,0,0,1-2.054-1.92l2.126-1.234,3.306,1.441-2.108,1.3Z" transform="translate(-92.259 -166.054)"/><path class="d" d="M97.6,174.211l-1.582-.679c-.7-.307-1.372-.564-1.372-1.32a1.038,1.038,0,0,1,.314-.8l3.342,1.435-.826.466c-.231.136-.388.255-.388.428s.216.342.511.472Z" transform="translate(-93.007 -163.605)"/><path class="c" d="M99.161,163.543l-1.618.958c-.146.084-.338.22-.338.43,0,.24.376.423.707.576l-2.027-.87c-.6-.257-1.194-.547-1.194-1.248a1.267,1.267,0,0,1,.228-.739l4.381-2.608a1.928,1.928,0,0,1,1.035,1.663,2.04,2.04,0,0,1-1.175,1.838Z" transform="translate(-93.023 -160.041)"/><path class="d" d="M104.516,168.036l-.4.223-3.347-1.44,3.889-2.282a1.949,1.949,0,0,1,1.04,1.663,1.994,1.994,0,0,1-1.181,1.837Z" transform="translate(-94.931 -161.45)"/><path class="c" d="M101.762,173.667l1.98.849c.742.322.97.7.97,1.184a1,1,0,0,1-.384.735L101,174.994l.562-.309c.478-.255.636-.411.636-.581s-.111-.294-.434-.437Z" transform="translate(-95.004 -164.313)"/><path class="e" d="M102.684,180.082a13.944,13.944,0,0,0-2.835-1.543L94.8,176.362c-1.268-.551-2.11-1.285-2.11-2.52a2.431,2.431,0,0,1,1.371-2.26l.28-.172a1.038,1.038,0,0,0-.314.8c0,.756.668,1.013,1.372,1.32l5.872,2.523a2.7,2.7,0,0,1,1.958,2.414,2.536,2.536,0,0,1-.547,1.612Z" transform="translate(-92.395 -163.605)"/><path class="f" d="M102.134,173.131l-.367.222a1,1,0,0,0,.384-.735c0-.479-.228-.861-.97-1.183L94.9,168.742c-1.268-.547-2.058-1.252-2.058-2.482a2.685,2.685,0,0,1,1.495-2.42,1.267,1.267,0,0,0-.228.739c0,.7.6.991,1.194,1.248l6.1,2.624a2.749,2.749,0,0,1,2.009,2.521,2.367,2.367,0,0,1-1.284,2.159Z" transform="translate(-92.443 -161.232)"/></g></g></g></svg>