<svg xmlns="http://www.w3.org/2000/svg" width="30" height="30" viewBox="0 0 30 30"><defs><style>.a{fill:#18599f;}.b{fill:#004598;}.c{fill:#fff;}</style></defs><g transform="translate(-0.18 -0.18)"><circle class="a" cx="15" cy="15" r="15" transform="translate(0.18 0.18)"/><g transform="translate(6.68 7.68)"><g transform="translate(0 0)"><path class="b" d="M807.915,581.1a4.316,4.316,0,0,1-2.011,2.421,7.218,7.218,0,0,0,1.443-8.168c-.547-.979.15-1.408.15-1.408a1.3,1.3,0,0,0-1.095,1.734,6.734,6.734,0,0,1,.366,4.456l-.524-.3.009-.012a5.6,5.6,0,0,0-3.826-6.683l0-.932h-1.07v6.132l4.973,2.865c-.089.186-.186.36-.287.527l-4.995-2.925-5.016,2.925c-.1-.167-.2-.341-.287-.527l4.973-2.865v-6.132h-1.069l0,.932a5.6,5.6,0,0,0-3.825,6.683l.008.012-.525.3a6.73,6.73,0,0,1,.367-4.456,1.3,1.3,0,0,0-1.094-1.734s.7.428.148,1.408a7.22,7.22,0,0,0,1.443,8.168,4.32,4.32,0,0,1-2.012-2.421,1.456,1.456,0,0,0-1.619-.721l.715,1.042a6.235,6.235,0,0,0,5.228,3.984v1.911h2.038V584.5a5.636,5.636,0,0,1-3.813-1.855l.512-.3a6.184,6.184,0,0,0,3.808,1.6v0h.024v0a6.192,6.192,0,0,0,3.809-1.6l.51.3a5.636,5.636,0,0,1-3.814,1.855v2.814h2.039V585.4a6.233,6.233,0,0,0,5.227-3.984,1.65,1.65,0,0,1,.716-1.042,1.457,1.457,0,0,0-1.62.721m-2.657-1.826-.006,0-2.8-1.587-.016-3.393h.016a4.226,4.226,0,0,1,2.81,4.975m-5.637-4.975h.016l-.016,3.393-2.807,1.587,0,0a4.226,4.226,0,0,1,2.809-4.975m4.219,7.453-.024-.013a4.175,4.175,0,0,1-5.561,0l-.024.013v0l2.813-1.655,2.8,1.655Z" transform="translate(-792.535 -572.208)"/></g><path class="c" d="M9.018,15.1V12.29a5.634,5.634,0,0,0,3.813-1.855l-.51-.3a6.19,6.19,0,0,1-3.809,1.6v0H8.488v0a6.181,6.181,0,0,1-3.808-1.6l-.512.3A5.633,5.633,0,0,0,7.981,12.29V15.1H5.943V13.194A6.235,6.235,0,0,1,.715,9.209L0,8.167a1.457,1.457,0,0,1,1.619.721,4.317,4.317,0,0,0,2.012,2.421A7.219,7.219,0,0,1,2.188,3.141c.547-.979-.149-1.408-.149-1.408A1.3,1.3,0,0,1,3.133,3.468a6.73,6.73,0,0,0-.367,4.456l.525-.3-.008-.012A5.6,5.6,0,0,1,7.107.932l0-.932h1.07V6.132L3.208,9c.091.186.188.36.286.527L8.511,6.6l4.995,2.925c.1-.167.2-.341.286-.527L8.818,6.132V0h1.07l0,.932a5.6,5.6,0,0,1,3.826,6.683l-.009.012.524.3a6.737,6.737,0,0,0-.367-4.456,1.3,1.3,0,0,1,1.095-1.734s-.7.428-.151,1.408a7.217,7.217,0,0,1-1.443,8.168A4.315,4.315,0,0,0,15.38,8.888,1.458,1.458,0,0,1,17,8.167a1.654,1.654,0,0,0-.716,1.042,6.232,6.232,0,0,1-5.227,3.984V15.1ZM8.5,10.587a4.4,4.4,0,0,0,2.78-1.061l.024.014v0L8.508,7.88,5.695,9.535v0l.024-.014A4.4,4.4,0,0,0,8.5,10.587ZM9.913,5.479l2.8,1.587.006,0a4.225,4.225,0,0,0-2.81-4.975H9.9ZM4.278,7.062l0,0L7.086,5.479,7.1,2.087H7.086A4.224,4.224,0,0,0,4.278,7.062Z" transform="translate(0 0)"/></g></g></svg>