<svg xmlns="http://www.w3.org/2000/svg" xmlns:xlink="http://www.w3.org/1999/xlink" width="30" height="30" viewBox="0 0 30 30"><defs><style>.a{fill:#005dab;}.b{fill:url(#a);}.c{fill:url(#b);}.d{fill:url(#c);}.e{fill:#e1b153;}</style><radialGradient id="a" cx="0.282" cy="0.778" r="1.286" gradientTransform="translate(-2.213) scale(1.095 1)" gradientUnits="objectBoundingBox"><stop offset="0" stop-color="#fff"/><stop offset="1" stop-color="#cd8f2f"/></radialGradient><radialGradient id="b" cx="0.7" cy="0.358" r="0.522" gradientTransform="translate(-7.627) scale(1.547 1)" xlink:href="#a"/><radialGradient id="c" cx="1.355" cy="-0.542" r="1.319" gradientTransform="translate(1.214) scale(0.944 1)" xlink:href="#a"/></defs><g transform="translate(-0.18 -0.18)"><circle class="a" cx="15" cy="15" r="15" transform="translate(0.18 0.18)"/><g transform="translate(8.231 7.469)"><g transform="translate(0 0)"><path class="b" d="M67.623,105.183a1.412,1.412,0,0,1-.935-.54c-.311-.447.22-.575.64-.367.576.286,1.054-.17.741-.545a2.963,2.963,0,0,0-1.751-.719c-.483-.066-.857-.034-1.479-.069-.721-.045-1.368-.65-1.573-.173-.149.352.756.911.383,1.867a7.252,7.252,0,0,0-.632,2.061,2.853,2.853,0,0,0,.03,1.056,1.328,1.328,0,0,0,1.008.954c.183.021,1.761.076,1.126-1.575-.318-.721-.564-1.5-.147-1.666s.828.133.993.724c.329,1.185,1.147,1.434,1.957.83A.992.992,0,0,0,67.623,105.183Z" transform="translate(-56.125 -101.944)"/><path class="c" d="M63.347,111s-.8-.743-2.269-2.121c-.762-.739-1.145-1.084-1.145-1.084-.262-.25-.516-.5-.755-.73-1.907-1.857-2.329-3.525-.9-4.506a2.852,2.852,0,0,1,1.454-.356s.274-.014.313-.206c.037-.176-.077-.306-.286-.324-1.774-.156-4.119.521-4.276,3.253,0,0-.259,2.22,2.979,5.063,0,0,3.4,2.987,3.759,3.338.863.832,1.576,2.464-.863,2.954,0,0-.273.048-.265.238a.249.249,0,0,0,.287.222,4.864,4.864,0,0,0,2.682-.841C65.049,115.2,65.931,113.191,63.347,111Z" transform="translate(-53.768 -101.649)"/><path class="d" d="M57.159,118.759a4.121,4.121,0,0,0,1.058-1.111c.385-.554.155-.632-.248-.6-1.074.093-1.563.259-1.78.259s-.089-.963-.145-1.774c-.046-.66-.334-.584-.6-.363-.452.4-.762,1.106-.854,1.036a2.848,2.848,0,0,1-.682-.868c-.256-.444-.492-1.055-.628-1.083-.443-.088-.331,1.024-.062,1.975a5.848,5.848,0,0,0,1.673,2.753,5.13,5.13,0,0,0,2.948,1.22c.725.072,1.36-.044,1.346-.31C59.168,119.526,58.072,119.631,57.159,118.759Z" transform="translate(-52.984 -105.608)"/></g><path class="e" d="M7.325,14.866c-.007-.19.265-.238.265-.238,2.44-.49,1.727-2.121.864-2.954-.362-.35-3.759-3.337-3.759-3.337C1.456,5.494,1.716,3.274,1.716,3.274,1.872.543,4.217-.135,5.991.021c.208.018.323.148.286.324-.04.193-.314.207-.314.207A2.85,2.85,0,0,0,4.51.908c-1.429.981-1.007,2.649.9,4.506.24.235.494.48.756.73,0,0,.383.344,1.145,1.084C8.776,8.6,9.579,9.348,9.579,9.348c2.584,2.195,1.7,4.2.714,4.9a4.862,4.862,0,0,1-2.682.841l-.03,0A.245.245,0,0,1,7.325,14.866ZM4.857,14.6a5.13,5.13,0,0,1-2.948-1.22A5.846,5.846,0,0,1,.236,10.626C-.032,9.675-.145,8.564.3,8.651c.136.028.371.639.628,1.083a2.847,2.847,0,0,0,.682.868c.092.07.4-.635.854-1.036.264-.221.551-.3.6.363.056.811-.086,1.774.145,1.774s.706-.166,1.78-.259c.4-.035.633.043.248.6a4.13,4.13,0,0,1-1.057,1.111c.912.872,2.008.767,2.027,1.136.012.214-.4.332-.935.332C5.137,14.619,5,14.613,4.857,14.6ZM7.93,6.765a1.328,1.328,0,0,1-1.008-.954,2.848,2.848,0,0,1-.03-1.056,7.237,7.237,0,0,1,.632-2.061C7.9,1.738,6.992,1.179,7.141.827c.2-.477.853.129,1.573.173.622.035,1,0,1.478.069a2.964,2.964,0,0,1,1.751.719c.313.374-.165.83-.741.544-.42-.209-.951-.08-.64.367a1.414,1.414,0,0,0,.935.54.992.992,0,0,1,.362,1.839c-.809.6-1.627.354-1.956-.83-.165-.591-.575-.892-.993-.724s-.171.945.147,1.666c.551,1.433-.564,1.581-.988,1.581C8,6.771,7.955,6.767,7.93,6.765Z" transform="translate(0 0)"/></g></g></svg>