<svg xmlns="http://www.w3.org/2000/svg" xmlns:xlink="http://www.w3.org/1999/xlink" width="30" height="30" viewBox="0 0 30 30"><defs><style>.a{fill:none;}.b{fill:#006ba7;}.c{fill:#fff;}.d{fill:#0082c9;}.e{clip-path:url(#a);}.f{fill:#0084cb;}.g{fill:#0086cc;}.h{fill:#0088cd;}.i{fill:#0089ce;}.j{fill:#008bcf;}.k{fill:#008dd1;}.l{fill:#008fd2;}.m{fill:#0091d3;}.n{fill:#0092d4;}.o{fill:#0094d6;}.p{fill:#0096d7;}.q{fill:#0098d8;}.r{fill:#009ad9;}.s{fill:#009cdb;}.t{fill:#009edc;}.u{fill:#00a0dd;}.v{fill:#00a2df;}.w{fill:#00a4e0;}.x{fill:#00a6e1;}.y{fill:#00a8e3;}.z{fill:#00aae4;}.aa{fill:#00ace5;}.ab{fill:#00afe6;}.ac{fill:#00b1e8;}.ad{fill:#00b3e9;}.ae{fill:#00b5eb;}.af{fill:#00b8ec;}.ag{fill:#00baed;}.ah{fill:#0cbdef;}.ai{fill:#16c0f1;}.aj{fill:#1fc3f3;}.ak{fill:#31c4f3;}.al{fill:#40c6f3;}.am{fill:#4ac7f4;}.an{fill:#55c9f4;}.ao{fill:#5dcbf4;}.ap{fill:#64ccf5;}.aq{fill:#6dcef5;}.ar{fill:#73d0f5;}.as{fill:#7ad1f6;}.at{fill:#81d3f6;}.au{fill:#87d5f7;}.av{fill:#8ed7f7;}.aw{fill:#94d9f7;}.ax{fill:#9adbf8;}.ay{fill:#a0ddf8;}.az{fill:#a6def8;}.ba{fill:#ace0f9;}.bb{fill:#b2e2f9;}.bc{fill:#b8e4fa;}.bd{fill:#bde6fa;}.be{fill:#c4e8fa;}.bf{fill:#c9eafb;}.bg{fill:#cfecfb;}.bh{fill:#d4eefb;}.bi{fill:#daf0fc;}.bj{fill:#e0f3fc;}.bk{fill:#e5f5fc;}.bl{fill:#eaf6fd;}.bm{fill:#f1f9fd;}.bn{fill:#f6fbfd;}</style><clipPath id="a"><path class="a" d="M12.356,40.6a7.193,7.193,0,1,0-7.1-7.2,7.155,7.155,0,0,0,7.1,7.2" transform="translate(-5.257 -26.211)"/></clipPath></defs><g transform="translate(-0.18 -0.18)"><circle class="b" cx="15" cy="15" r="15" transform="translate(0.18 0.18)"/><g transform="translate(7.604 7.469)"><path class="c" d="M19.655,33.264A7.456,7.456,0,1,1,12.2,25.725a7.5,7.5,0,0,1,7.459,7.539Z" transform="translate(-4.744 -25.725)"/><path class="d" d="M12.355,40.591a7.192,7.192,0,1,0-7.1-7.195,7.152,7.152,0,0,0,7.1,7.195Z" transform="translate(-4.904 -25.876)"/><g transform="translate(0.352 0.334)"><g class="e"><path class="d" d="M12.2,37.974c3.124,0,5.8.881,6.944,2.131a7.3,7.3,0,0,0,.6-2.911,7.545,7.545,0,0,0-15.09,0,7.318,7.318,0,0,0,.6,2.911c1.142-1.25,3.817-2.131,6.946-2.131Z" transform="translate(-5.069 -27.315)"/><path class="f" d="M12.208,38.012c3.119,0,5.787.873,6.931,2.114a7.246,7.246,0,0,0,.595-2.889,7.524,7.524,0,0,0-15.046,0,7.2,7.2,0,0,0,.6,2.886c1.134-1.241,3.814-2.114,6.925-2.114Z" transform="translate(-5.078 -27.345)"/><path class="g" d="M12.216,38.049c3.1,0,5.771.863,6.91,2.093a7.142,7.142,0,0,0,.595-2.862,7.506,7.506,0,0,0-15.01,0A7.163,7.163,0,0,0,5.3,40.142c1.138-1.229,3.8-2.093,6.912-2.093Z" transform="translate(-5.086 -27.373)"/><path class="h" d="M12.224,38.09c3.1,0,5.756.853,6.892,2.078a7,7,0,0,0,.594-2.847,7.414,7.414,0,0,0-7.485-7.316,7.421,7.421,0,0,0-7.487,7.321,7.069,7.069,0,0,0,.594,2.841c1.14-1.225,3.8-2.078,6.893-2.078Z" transform="translate(-5.094 -27.403)"/><path class="i" d="M12.233,38.121c3.092,0,5.741.851,6.876,2.066a7.081,7.081,0,0,0,.59-2.819A7.386,7.386,0,0,0,12.233,30.1a7.386,7.386,0,0,0-7.468,7.269,6.994,6.994,0,0,0,.594,2.819c1.13-1.215,3.781-2.066,6.874-2.066Z" transform="translate(-5.103 -27.433)"/><path class="j" d="M12.237,38.157c3.082,0,5.726.841,6.858,2.045a6.864,6.864,0,0,0,.591-2.794,7.356,7.356,0,0,0-7.449-7.225A7.364,7.364,0,0,0,4.79,37.407a6.82,6.82,0,0,0,.59,2.794c1.13-1.2,3.773-2.045,6.857-2.045Z" transform="translate(-5.111 -27.459)"/><path class="k" d="M12.245,38.194c3.074,0,5.714.835,6.842,2.027a6.82,6.82,0,0,0,.583-2.77,7.323,7.323,0,0,0-7.425-7.175,7.329,7.329,0,0,0-7.424,7.175,6.681,6.681,0,0,0,.59,2.77c1.125-1.192,3.763-2.027,6.834-2.027Z" transform="translate(-5.12 -27.488)"/><path class="l" d="M12.252,38.233c3.068,0,5.7.829,6.822,2.012A6.708,6.708,0,0,0,19.66,37.5a7.292,7.292,0,0,0-7.408-7.119A7.3,7.3,0,0,0,4.842,37.5a6.644,6.644,0,0,0,.588,2.747c1.123-1.183,3.755-2.012,6.822-2.012Z" transform="translate(-5.127 -27.52)"/><path class="m" d="M12.258,38.272c3.061,0,5.684.824,6.807,1.995a6.6,6.6,0,0,0,.585-2.73,7.267,7.267,0,0,0-7.392-7.067,7.27,7.27,0,0,0-7.389,7.069,6.719,6.719,0,0,0,.585,2.729c1.122-1.171,3.745-1.995,6.8-1.995Z" transform="translate(-5.135 -27.549)"/><path class="n" d="M12.269,38.309c3.054,0,5.667.816,6.792,1.974a6.613,6.613,0,0,0,.582-2.7,7.237,7.237,0,0,0-7.373-7.025A7.23,7.23,0,0,0,4.9,37.587a6.471,6.471,0,0,0,.582,2.7c1.118-1.158,3.733-1.974,6.784-1.974Z" transform="translate(-5.146 -27.578)"/><path class="o" d="M12.277,38.343c3.041,0,5.65.813,6.769,1.964a6.4,6.4,0,0,0,.578-2.683,7.2,7.2,0,0,0-7.347-6.963,7.2,7.2,0,0,0-7.349,6.971,6.453,6.453,0,0,0,.579,2.675c1.117-1.151,3.727-1.964,6.77-1.964Z" transform="translate(-5.154 -27.609)"/><path class="p" d="M12.284,38.383c3.033,0,5.637.8,6.748,1.943a6.308,6.308,0,0,0,.58-2.655,7.176,7.176,0,0,0-7.327-6.922,7.179,7.179,0,0,0-7.333,6.923,6.328,6.328,0,0,0,.582,2.654c1.112-1.142,3.715-1.943,6.75-1.943Z" transform="translate(-5.161 -27.637)"/><path class="q" d="M12.294,38.417c3.029,0,5.623.8,6.731,1.925a6.238,6.238,0,0,0,.574-2.627,7.147,7.147,0,0,0-7.306-6.877,7.149,7.149,0,0,0-7.31,6.877,6.159,6.159,0,0,0,.576,2.627c1.11-1.13,3.707-1.925,6.734-1.925Z" transform="translate(-5.172 -27.664)"/><path class="r" d="M12.3,38.454c3.016,0,5.6.789,6.713,1.91a6.171,6.171,0,0,0,.577-2.608,7.116,7.116,0,0,0-7.29-6.825A7.123,7.123,0,0,0,5,37.757a6.142,6.142,0,0,0,.581,2.608c1.107-1.122,3.694-1.91,6.717-1.91Z" transform="translate(-5.177 -27.694)"/><path class="s" d="M12.307,38.5c3.009,0,5.593.775,6.7,1.884a6.034,6.034,0,0,0,.577-2.582,7.091,7.091,0,0,0-7.272-6.775A7.093,7.093,0,0,0,5.034,37.8a6.074,6.074,0,0,0,.574,2.582c1.1-1.109,3.687-1.884,6.7-1.884Z" transform="translate(-5.187 -27.723)"/><path class="t" d="M12.317,38.528c3,0,5.575.774,6.677,1.877a5.98,5.98,0,0,0,.577-2.565,7.061,7.061,0,0,0-7.254-6.722,7.06,7.06,0,0,0-7.252,6.725A5.942,5.942,0,0,0,5.637,40.4c1.1-1.1,3.672-1.877,6.679-1.877Z" transform="translate(-5.197 -27.753)"/><path class="u" d="M12.325,38.564c2.989,0,5.563.771,6.659,1.858a5.861,5.861,0,0,0,.573-2.535c0-3.6-3.238-6.675-7.232-6.675s-7.233,3.078-7.233,6.675a5.872,5.872,0,0,0,.57,2.535c1.1-1.087,3.665-1.858,6.664-1.858Z" transform="translate(-5.205 -27.782)"/><path class="v" d="M12.331,38.607c2.987,0,5.547.757,6.643,1.839a5.819,5.819,0,0,0,.569-2.521c0-3.56-3.233-6.622-7.212-6.622s-7.215,3.062-7.215,6.622a5.9,5.9,0,0,0,.568,2.521c1.1-1.082,3.658-1.839,6.647-1.839Z" transform="translate(-5.213 -27.811)"/><path class="w" d="M12.337,38.645c2.976,0,5.535.75,6.628,1.82a5.739,5.739,0,0,0,.565-2.486c0-3.534-3.223-6.577-7.194-6.577S5.142,34.446,5.142,37.98a5.733,5.733,0,0,0,.568,2.486c1.093-1.07,3.65-1.82,6.627-1.82Z" transform="translate(-5.221 -27.842)"/><path class="x" d="M12.347,38.68c2.968,0,5.517.743,6.606,1.8a5.629,5.629,0,0,0,.569-2.466c0-3.5-3.214-6.528-7.175-6.528S5.173,34.519,5.173,38.02a5.6,5.6,0,0,0,.565,2.466c1.086-1.062,3.636-1.8,6.609-1.8Z" transform="translate(-5.231 -27.87)"/><path class="y" d="M12.353,38.712c2.961,0,5.5.74,6.589,1.793a5.575,5.575,0,0,0,.568-2.446c0-3.464-3.208-6.476-7.157-6.476s-7.16,3.012-7.16,6.476A5.6,5.6,0,0,0,5.758,40.5c1.085-1.053,3.627-1.793,6.594-1.793Z" transform="translate(-5.237 -27.899)"/><path class="z" d="M12.363,38.753c2.949,0,5.486.728,6.568,1.775A5.514,5.514,0,0,0,19.5,38.1c0-3.43-3.2-6.428-7.134-6.428s-7.137,3-7.137,6.433a5.486,5.486,0,0,0,.561,2.421c1.08-1.047,3.619-1.775,6.577-1.775Z" transform="translate(-5.247 -27.927)"/><path class="aa" d="M12.365,38.789c2.948,0,5.476.721,6.558,1.753a5.476,5.476,0,0,0,.563-2.391c0-3.4-3.189-6.385-7.121-6.385S5.247,34.752,5.247,38.15a5.325,5.325,0,0,0,.565,2.391c1.077-1.032,3.609-1.753,6.553-1.753Z" transform="translate(-5.254 -27.956)"/><path class="ab" d="M12.371,38.825c2.939,0,5.463.714,6.537,1.735a5.267,5.267,0,0,0,.561-2.369c0-3.366-3.178-6.331-7.1-6.331s-7.1,2.966-7.1,6.335a5.247,5.247,0,0,0,.563,2.366c1.076-1.021,3.6-1.735,6.533-1.735Z" transform="translate(-5.263 -27.985)"/><path class="ac" d="M12.38,38.866c2.931,0,5.447.707,6.52,1.721a5.264,5.264,0,0,0,.562-2.352c0-3.331-3.171-6.28-7.082-6.28S5.3,34.9,5.3,38.234a5.23,5.23,0,0,0,.559,2.352c1.075-1.014,3.59-1.721,6.518-1.721Z" transform="translate(-5.272 -28.015)"/><path class="ad" d="M12.388,38.9c2.921,0,5.432.7,6.5,1.707a5.152,5.152,0,0,0,.557-2.326c0-3.3-3.16-6.234-7.06-6.234s-7.061,2.933-7.061,6.234a5.167,5.167,0,0,0,.557,2.326C6.958,39.6,9.466,38.9,12.388,38.9Z" transform="translate(-5.279 -28.044)"/><path class="ae" d="M12.394,38.942c2.914,0,5.417.69,6.482,1.683a5.042,5.042,0,0,0,.561-2.307c0-3.265-3.155-6.176-7.042-6.176s-7.041,2.911-7.041,6.176a5.057,5.057,0,0,0,.557,2.307c1.068-.993,3.572-1.683,6.484-1.683Z" transform="translate(-5.288 -28.074)"/><path class="af" d="M12.4,38.976c2.9,0,5.4.686,6.465,1.667a4.975,4.975,0,0,0,.557-2.274c0-3.237-3.147-6.134-7.023-6.134s-7.02,2.9-7.02,6.134a4.945,4.945,0,0,0,.554,2.274c1.068-.981,3.56-1.667,6.466-1.667Z" transform="translate(-5.297 -28.103)"/><path class="ag" d="M12.413,39.013c2.9,0,5.385.679,6.444,1.651a4.831,4.831,0,0,0,.557-2.258c0-3.2-3.134-6.084-7-6.084s-7,2.884-7,6.084a4.9,4.9,0,0,0,.554,2.258c1.058-.972,3.544-1.651,6.446-1.651Z" transform="translate(-5.306 -28.131)"/><path class="ah" d="M12.414,39.05c2.891,0,5.376.672,6.434,1.636a4.835,4.835,0,0,0,.554-2.236c0-3.164-3.124-6.034-6.988-6.034s-6.978,2.869-6.978,6.034a4.815,4.815,0,0,0,.554,2.236c1.057-.964,3.537-1.636,6.424-1.636Z" transform="translate(-5.313 -28.16)"/><path class="ai" d="M12.421,39.085c2.887,0,5.362.667,6.413,1.625a4.747,4.747,0,0,0,.555-2.214c0-3.136-3.116-5.983-6.968-5.983S5.464,35.36,5.464,38.5a4.791,4.791,0,0,0,.549,2.214c1.055-.958,3.53-1.625,6.409-1.625Z" transform="translate(-5.322 -28.19)"/><path class="aj" d="M12.429,39.122c2.878,0,5.346.658,6.4,1.6a4.628,4.628,0,0,0,.549-2.188c0-3.1-3.105-5.934-6.946-5.934s-6.94,2.836-6.94,5.934a4.658,4.658,0,0,0,.548,2.188c1.056-.945,3.522-1.6,6.392-1.6Z" transform="translate(-5.33 -28.219)"/><path class="ak" d="M12.434,39.165c2.875,0,5.338.658,6.388,1.6a4.6,4.6,0,0,0,.552-2.175c0-3.084-3.1-5.9-6.939-5.9s-6.929,2.814-6.929,5.9a4.623,4.623,0,0,0,.548,2.175c1.053-.94,3.515-1.6,6.381-1.6Z" transform="translate(-5.335 -28.246)"/><path class="al" d="M12.438,39.216c2.867,0,5.335.651,6.382,1.58a4.528,4.528,0,0,0,.544-2.16c0-3.059-3.1-5.859-6.926-5.859s-6.922,2.8-6.922,5.859a4.582,4.582,0,0,0,.548,2.16c1.051-.929,3.515-1.58,6.374-1.58Z" transform="translate(-5.339 -28.274)"/><path class="am" d="M12.443,39.26c2.867,0,5.32.644,6.37,1.572a4.526,4.526,0,0,0,.551-2.147c0-3.042-3.1-5.821-6.921-5.821s-6.911,2.779-6.911,5.821a4.515,4.515,0,0,0,.545,2.147c1.047-.929,3.507-1.57,6.365-1.572Z" transform="translate(-5.344 -28.301)"/><path class="an" d="M12.446,39.307c2.863,0,5.316.64,6.36,1.555a4.418,4.418,0,0,0,.55-2.129c0-3.015-3.091-5.787-6.91-5.787s-6.9,2.771-6.9,5.787a4.471,4.471,0,0,0,.542,2.129c1.053-.915,3.5-1.555,6.36-1.555Z" transform="translate(-5.347 -28.327)"/><path class="ao" d="M12.451,39.346c2.855,0,5.309.637,6.354,1.547a4.372,4.372,0,0,0,.547-2.109c0-3.006-3.087-5.757-6.9-5.757s-6.893,2.751-6.893,5.757A4.378,4.378,0,0,0,6.1,40.893c1.048-.91,3.5-1.547,6.348-1.547Z" transform="translate(-5.352 -28.352)"/><path class="ap" d="M12.454,39.4c2.85,0,5.3.629,6.345,1.54a4.389,4.389,0,0,0,.545-2.1c0-2.979-3.082-5.709-6.889-5.709s-6.886,2.73-6.886,5.709a4.409,4.409,0,0,0,.545,2.1c1.047-.911,3.493-1.54,6.34-1.54Z" transform="translate(-5.355 -28.382)"/><path class="aq" d="M12.46,39.439c2.85,0,5.3.628,6.336,1.531a4.348,4.348,0,0,0,.547-2.089c0-2.955-3.083-5.681-6.882-5.681s-6.874,2.726-6.874,5.681a4.35,4.35,0,0,0,.542,2.089c1.045-.9,3.488-1.531,6.332-1.531Z" transform="translate(-5.361 -28.407)"/><path class="ar" d="M12.465,39.483c2.846,0,5.289.629,6.327,1.523a4.258,4.258,0,0,0,.548-2.076c0-2.939-3.079-5.642-6.876-5.642S5.6,35.991,5.6,38.93a4.315,4.315,0,0,0,.541,2.076c1.041-.894,3.482-1.523,6.322-1.523Z" transform="translate(-5.366 -28.434)"/><path class="as" d="M12.469,39.533c2.844,0,5.281.616,6.319,1.5a4.188,4.188,0,0,0,.545-2.056c0-2.915-3.071-5.6-6.864-5.6s-6.854,2.686-6.854,5.6a4.189,4.189,0,0,0,.541,2.056c1.039-.886,3.478-1.5,6.313-1.5Z" transform="translate(-5.37 -28.463)"/><path class="at" d="M12.474,39.572c2.838,0,5.271.617,6.309,1.5a4.187,4.187,0,0,0,.545-2.044c0-2.9-3.067-5.573-6.854-5.573S5.63,36.129,5.63,39.028a4.215,4.215,0,0,0,.536,2.044c1.042-.882,3.481-1.5,6.307-1.5Z" transform="translate(-5.375 -28.486)"/><path class="au" d="M12.477,39.623c2.835,0,5.266.611,6.3,1.488a4.162,4.162,0,0,0,.544-2.033c0-2.874-3.066-5.533-6.847-5.533S5.643,36.2,5.643,39.078a4.2,4.2,0,0,0,.536,2.033c1.038-.876,3.473-1.488,6.3-1.488Z" transform="translate(-5.378 -28.515)"/><path class="av" d="M12.481,39.666c2.833,0,5.259.607,6.292,1.481a4.068,4.068,0,0,0,.539-2.016c0-2.866-3.054-5.5-6.831-5.5s-6.828,2.634-6.828,5.494a4.168,4.168,0,0,0,.538,2.023c1.039-.874,3.466-1.481,6.29-1.481Z" transform="translate(-5.382 -28.542)"/><path class="aw" d="M12.485,39.715c2.829,0,5.251.605,6.286,1.463a4.066,4.066,0,0,0,.541-2.005c0-2.836-3.053-5.457-6.826-5.457s-6.818,2.622-6.818,5.457a4.033,4.033,0,0,0,.541,2.005c1.034-.857,3.458-1.463,6.277-1.463Z" transform="translate(-5.386 -28.568)"/><path class="ax" d="M12.49,39.756c2.824,0,5.246.6,6.278,1.456a4.017,4.017,0,0,0,.54-1.982c0-2.822-3.054-5.425-6.817-5.425s-6.809,2.6-6.809,5.42a4.018,4.018,0,0,0,.537,1.987c1.034-.857,3.456-1.456,6.272-1.456Z" transform="translate(-5.39 -28.596)"/><path class="ay" d="M12.5,39.8c2.818,0,5.238.6,6.268,1.445a3.955,3.955,0,0,0,.536-1.973c0-2.795-3.043-5.384-6.8-5.384s-6.8,2.59-6.8,5.384a3.917,3.917,0,0,0,.534,1.973C7.27,40.4,9.682,39.8,12.5,39.8Z" transform="translate(-5.396 -28.623)"/><path class="az" d="M12.5,39.846c2.817,0,5.229.591,6.259,1.437a3.9,3.9,0,0,0,.536-1.958c0-2.778-3.037-5.353-6.795-5.353S5.71,36.547,5.71,39.325a3.961,3.961,0,0,0,.532,1.958c1.034-.846,3.451-1.437,6.256-1.437Z" transform="translate(-5.399 -28.649)"/><path class="ba" d="M12.5,39.891c2.809,0,5.221.59,6.251,1.428a3.854,3.854,0,0,0,.535-1.946c0-2.756-3.036-5.308-6.785-5.308s-6.781,2.552-6.781,5.308a3.9,3.9,0,0,0,.533,1.946c1.032-.838,3.444-1.425,6.248-1.428Z" transform="translate(-5.403 -28.678)"/><path class="bb" d="M12.507,39.938c2.805,0,5.213.578,6.239,1.411a3.793,3.793,0,0,0,.541-1.927c0-2.738-3.034-5.279-6.78-5.279s-6.77,2.541-6.77,5.277a3.843,3.843,0,0,0,.532,1.929c1.03-.833,3.437-1.411,6.238-1.411Z" transform="translate(-5.408 -28.703)"/><path class="bc" d="M12.512,39.982c2.8,0,5.209.584,6.233,1.4a3.786,3.786,0,0,0,.538-1.918c0-2.717-3.033-5.236-6.771-5.236s-6.76,2.519-6.76,5.236a3.764,3.764,0,0,0,.533,1.918c1.025-.821,3.429-1.4,6.227-1.4Z" transform="translate(-5.413 -28.731)"/><path class="bd" d="M12.515,40.03c2.8,0,5.2.571,6.225,1.39a3.71,3.71,0,0,0,.531-1.9c0-2.7-3.02-5.208-6.757-5.208s-6.754,2.509-6.754,5.2a3.748,3.748,0,0,0,.53,1.9c1.031-.819,3.43-1.39,6.223-1.39Z" transform="translate(-5.416 -28.756)"/><path class="be" d="M12.519,40.07c2.8,0,5.193.572,6.215,1.385a3.672,3.672,0,0,0,.533-1.89c0-2.674-3.02-5.166-6.748-5.166s-6.743,2.491-6.743,5.166a3.664,3.664,0,0,0,.534,1.89c1.024-.813,3.421-1.385,6.209-1.385Z" transform="translate(-5.42 -28.783)"/><path class="bf" d="M12.527,40.117c2.8,0,5.188.569,6.207,1.372a3.616,3.616,0,0,0,.533-1.868c0-2.66-3.015-5.13-6.74-5.13S5.8,36.961,5.8,39.621a3.661,3.661,0,0,0,.523,1.868c1.024-.8,3.42-1.37,6.2-1.372Z" transform="translate(-5.428 -28.812)"/><path class="bg" d="M12.53,40.166c2.79,0,5.179.56,6.2,1.36a3.61,3.61,0,0,0,.534-1.86c0-2.634-3.011-5.093-6.732-5.093s-6.72,2.46-6.72,5.093a3.578,3.578,0,0,0,.527,1.86c1.022-.8,3.413-1.36,6.193-1.36Z" transform="translate(-5.431 -28.838)"/><path class="bh" d="M12.531,40.206c2.784,0,5.17.556,6.192,1.355a3.581,3.581,0,0,0,.53-1.844c0-2.615-3.01-5.057-6.722-5.057S5.813,37.1,5.813,39.717a3.556,3.556,0,0,0,.534,1.844c1.019-.8,3.41-1.355,6.184-1.355Z" transform="translate(-5.432 -28.865)"/><path class="bi" d="M12.537,40.256c2.781,0,5.164.553,6.184,1.338a3.547,3.547,0,0,0,.527-1.831c0-2.593-3-5.02-6.712-5.02s-6.7,2.427-6.7,5.02a3.487,3.487,0,0,0,.529,1.831c1.015-.785,3.4-1.338,6.176-1.338Z" transform="translate(-5.438 -28.891)"/><path class="bj" d="M12.54,40.3c2.777,0,5.157.546,6.172,1.328a3.466,3.466,0,0,0,.528-1.816c0-2.575-3-4.988-6.7-4.988s-6.7,2.413-6.7,4.988a3.457,3.457,0,0,0,.529,1.816c1.016-.781,3.4-1.328,6.169-1.328Z" transform="translate(-5.441 -28.916)"/><path class="bk" d="M12.546,40.341c2.775,0,5.152.545,6.165,1.329a3.454,3.454,0,0,0,.528-1.809c0-2.55-2.994-4.945-6.694-4.945s-6.686,2.4-6.686,4.945a3.436,3.436,0,0,0,.528,1.809c1.019-.784,3.394-1.327,6.158-1.329Z" transform="translate(-5.446 -28.945)"/><path class="bl" d="M12.552,40.389c2.77,0,5.144.541,6.156,1.309a3.377,3.377,0,0,0,.53-1.786c0-2.531-2.994-4.909-6.685-4.909S5.879,37.38,5.879,39.912A3.38,3.38,0,0,0,6.4,41.7c1.016-.768,3.389-1.307,6.151-1.309Z" transform="translate(-5.453 -28.973)"/><path class="bm" d="M12.554,40.432c2.766,0,5.136.537,6.148,1.3a3.385,3.385,0,0,0,.526-1.777c0-2.514-2.985-4.878-6.673-4.878s-6.668,2.364-6.668,4.878a3.374,3.374,0,0,0,.523,1.777c1.015-.766,3.392-1.3,6.145-1.3Z" transform="translate(-5.455 -28.997)"/><path class="bn" d="M12.558,40.476c2.763,0,5.128.532,6.141,1.292a3.309,3.309,0,0,0,.523-1.758c0-2.494-2.983-4.839-6.663-4.839S5.9,37.516,5.9,40.01a3.263,3.263,0,0,0,.527,1.758c1.008-.759,3.379-1.285,6.132-1.292Z" transform="translate(-5.459 -29.025)"/><path class="c" d="M12.562,40.522c2.759,0,5.119.532,6.132,1.281a3.253,3.253,0,0,0,.524-1.745c0-2.473-2.977-4.8-6.655-4.8s-6.65,2.329-6.65,4.8A3.252,3.252,0,0,0,6.435,41.8c1.01-.749,3.379-1.273,6.127-1.281Z" transform="translate(-5.463 -29.053)"/></g></g><path class="d" d="M12.638,39.332a18.59,18.59,0,0,0-6.485,1.111,7.072,7.072,0,0,0,12.987,0,18.668,18.668,0,0,0-6.5-1.111Z" transform="translate(-5.187 -29.999)"/></g></g></svg>