<svg xmlns="http://www.w3.org/2000/svg" width="28" height="28" viewBox="0 0 28 28"><defs><style>.a{fill:none;}.b{fill:#ce0e16;}</style></defs><g transform="translate(-0.18 0.82)"><rect class="a" width="28" height="28" transform="translate(0.18 -0.82)"/><g transform="translate(0.18 9.18)"><path class="b" d="M88,106.874h.721a.083.083,0,0,0,.085-.081V105.48a.084.084,0,0,0-.085-.083H87.71a2.031,2.031,0,0,0-2.148,1.13l-2.2,5.207a.673.673,0,0,1-.706.458V105.48a.084.084,0,0,0-.086-.083H80.948a.085.085,0,0,0-.086.083v8.045a.149.149,0,0,0,.152.145h1.816a1.913,1.913,0,0,0,2.062-1.128l2.175-5.142A.882.882,0,0,1,88,106.874Z" transform="translate(-61.693 -105.397)"/><path class="b" d="M57.259,109.534a1.851,1.851,0,0,0,1.188-1.815c0-1.445-1.286-2.322-2.835-2.322H50.825a.084.084,0,0,0-.085.083v1.312a.083.083,0,0,0,.085.081H55.28c.72,0,1.205.424,1.205.946s-.486.947-1.205.947H52.633v-.975a.084.084,0,0,0-.085-.082H50.825a.084.084,0,0,0-.085.082v5.8a.084.084,0,0,0,.085.082h4.718c1.763,0,3.026-.794,3.026-2.411A1.789,1.789,0,0,0,57.259,109.534Zm-1.887,2.694H52.633v-1.94h2.739c.738,0,1.236.435,1.236.97S56.11,112.229,55.372,112.229Z" transform="translate(-50.74 -105.397)"/><path class="b" d="M92.686,116.288l-2.775-3.426a.014.014,0,0,0-.025,0l-.747,1.763a.033.033,0,0,0,0,.033l1.214,1.571a.375.375,0,0,0,.328.151H92.64A.055.055,0,0,0,92.686,116.288Z" transform="translate(-64.702 -108.109)"/><path class="b" d="M66.846,109.03H65.225a.084.084,0,0,0-.085.082v5.8a.084.084,0,0,0,.085.082h1.621a.084.084,0,0,0,.085-.082v-5.8A.084.084,0,0,0,66.846,109.03Z" transform="translate(-55.976 -106.718)"/><path class="b" d="M73.514,105.4h-1.62a.084.084,0,0,0-.085.083v6.713a.67.67,0,0,1-.705-.458l-2.2-5.207a2.031,2.031,0,0,0-2.148-1.13H65.225a.084.084,0,0,0-.085.083v1.312a.083.083,0,0,0,.085.081H66.46a.883.883,0,0,1,.936.525l2.175,5.142a1.913,1.913,0,0,0,2.062,1.128h1.816a.147.147,0,0,0,.149-.145V105.48A.083.083,0,0,0,73.514,105.4Z" transform="translate(-55.976 -105.397)"/></g></g></svg>