<svg xmlns="http://www.w3.org/2000/svg" width="28" height="28" viewBox="0 0 28 28"><defs><style>.a{fill:none;}.b{fill:#fff;}.c{fill:#007ec0;}.d{fill:#db2422;}.e{fill:#004187;}</style></defs><g transform="translate(-0.18 0.82)"><rect class="a" width="28" height="28" transform="translate(0.18 -0.82)"/><g transform="translate(0.18 -0.82)"><path class="b" d="M30.289,133.9a3.181,3.181,0,0,0-1.573,1.873l-5.022,15.582a3.307,3.307,0,0,0,.174,2.477,3.165,3.165,0,0,0,1.813,1.621l16.469,5.708a3.033,3.033,0,0,0,2.4-.177,3.181,3.181,0,0,0,1.571-1.876l5.024-15.577a3.271,3.271,0,0,0-1.988-4.1l-16.467-5.706a3.027,3.027,0,0,0-2.4.178" transform="translate(-23.532 -133.557)"/><path class="c" d="M38.158,148.674a8.6,8.6,0,0,1-3.3,2.377l-.743.3V144.13l.734.294a8.628,8.628,0,0,1,3.312,2.367,7.958,7.958,0,0,0,1.119-3.638,7.86,7.86,0,0,0-4.78-7.742l-2.379-.817a2.02,2.02,0,0,0-2.571,1.347l-5.036,15.59a2.144,2.144,0,0,0,1.32,2.678l11.429,3.939a8.006,8.006,0,0,0,.9-9.475m-6.606,3.119H30.416V143.7h1.135Z" transform="translate(-23.35 -133.364)"/><path class="d" d="M35.643,145.781a7.675,7.675,0,0,0-2.3-1.9v3.8a7.635,7.635,0,0,0,2.3-1.908" transform="translate(-21.495 -131.413)"/><path class="e" d="M46.252,139.9l-10.489-3.619a9.094,9.094,0,0,1,2.275,6.024,9.191,9.191,0,0,1-1.513,5.049,9.151,9.151,0,0,1-.5,10.807l3.939,1.357a2.02,2.02,0,0,0,2.573-1.35l5.039-15.589a2.147,2.147,0,0,0-1.322-2.679m-2.779,11.489-1.417,0-2.915-4.048L42.1,143.3l1.429-.006-2.967,4.058Z" transform="translate(-20.992 -132.991)"/></g></g></svg>