<svg xmlns="http://www.w3.org/2000/svg" width="28.152" height="28" viewBox="0 0 28.152 28"><defs><style>.a{fill:none;}.b{fill:#ffb200;stroke:#ffb200;stroke-width:0.3px;}</style></defs><g transform="translate(-0.028 0.82)"><rect class="a" width="28" height="28" transform="translate(0.18 -0.82)"/><path class="b" d="M155.53,65.415a37.253,37.253,0,0,0,.478,6.089.114.114,0,0,0,.01.035c.279.409.567,2.033.8,2.541a.156.156,0,0,0,.05.05,2.013,2.013,0,0,0,1.055.281.042.042,0,0,0,.044-.039,6.645,6.645,0,0,0-.018-1.584c-.125-1.9-.261-4.913-.24-6.741,1.474.826,7,4.815,9.889,5.639a.185.185,0,0,0,.182-.038,1.008,1.008,0,0,1,.424-.263.559.559,0,0,0,.155-.5c1.826-.068,4.362-.774,5.691-2.455.914-1.154.9-2.764.328-3.307a1.977,1.977,0,0,1-.237-.152,4.133,4.133,0,0,0-3.324-1.032,6.516,6.516,0,0,0-3.119,1.127s-.007,0-.011-.005c-.067-1.238.427-2.811-.007-3.827a.084.084,0,0,0-.09-.055,3.138,3.138,0,0,0-1.3.42.157.157,0,0,0-.058.132A8.119,8.119,0,0,1,166,63.672c-.026.028-.018.056-.026.118a22.35,22.35,0,0,0-.011,4.647.788.788,0,0,0,.389.3,2.962,2.962,0,0,0,1.206-.252.73.73,0,0,1,.189-.033c.051,0,.072-.063.067-.122a2.288,2.288,0,0,1,.013-.426,4.02,4.02,0,0,1,2.916-2.872,2.059,2.059,0,0,1,1.982.651,2.543,2.543,0,0,1-.286,2.048,4.05,4.05,0,0,1-2.2,1.757,8.338,8.338,0,0,1-3.352.467,30.773,30.773,0,0,0-4.63-2.872,5.143,5.143,0,0,1-.934-.677c-.8-.645-2.5-1.762-3.515-2.447-.008-.007-.008-.014-.008-.029a.5.5,0,0,1,.014-.215.146.146,0,0,1,.078-.088,22.161,22.161,0,0,0,1.983-1.257.893.893,0,0,1,.168-.115c2.252-1.373,6.2-3.233,7.931-5.031a.155.155,0,0,0,.024-.105.8.8,0,0,1,.033-.218,1.108,1.108,0,0,0,.018-.671.1.1,0,0,0-.068-.073,4.667,4.667,0,0,0-3.286,1.548,3.928,3.928,0,0,1-.91.609c-1.292.739-4.35,2.648-5.81,3.593-.019.012-.037,0-.037-.019a49.633,49.633,0,0,1,.783-6.084.189.189,0,0,0-.028-.138c-.118-.182-.189-.395-.231-.441a.053.053,0,0,0-.02-.016.834.834,0,0,0-.629-.037c-.183.042-.409.189-.7.259a.1.1,0,0,0-.075.061,24.727,24.727,0,0,0-1.462,7.045c0,.008,0,.024-.015.014A33.861,33.861,0,0,0,152,60.567a.194.194,0,0,0-.055-.014,2.619,2.619,0,0,1-.872-.406c-.322-.194-.95-.642-1.344-.872a.192.192,0,0,0-.133-.032,2.474,2.474,0,0,0-1.153.78c-.058.089.062.286.047.406a.042.042,0,0,0,.012.036,11.7,11.7,0,0,0,2.357,1.6c1.188.644,2.4,1.256,2.9,1.575a.069.069,0,0,1,.029.032.961.961,0,0,0,.269.2,2.445,2.445,0,0,1,.355.22c.032.029.016.063-.017.086-1.256.88-3.752,2.511-4.942,3.314-.176.115-.85.418-.989.475a1.294,1.294,0,0,0-.683.558c-.021.044.007.067.04.077.192.054.238.19.372.243a.523.523,0,0,0,.149.019,4.6,4.6,0,0,0,1.469-.507c.892-.4,3.668-2.112,4-2.308a.031.031,0,0,1,.023-.007.849.849,0,0,0,.459-.236,4.917,4.917,0,0,1,.788-.473l.453-.252Z" transform="translate(-147.594 -51.094)"/></g></svg>