<svg xmlns="http://www.w3.org/2000/svg" width="28" height="28" viewBox="0 0 28 28"><defs><style>.a{fill:none;}.b{fill:#009e90;}.c{fill:#ff024b;}</style></defs><g transform="translate(-0.18 0.82)"><rect class="a" width="28" height="28" transform="translate(0.18 -0.82)"/><g transform="translate(-93.068 1.832)"><path class="b" d="M265.126,270.044a4.168,4.168,0,0,0-.3-1.02,5.083,5.083,0,0,0-2.056-2.338,4.7,4.7,0,0,0-4.766.028,4.14,4.14,0,0,0-1.569,1.652,4.875,4.875,0,0,0-.3.722,5.006,5.006,0,0,0,.325,3.95,2.013,2.013,0,0,0,.965.823,1.419,1.419,0,0,0,1.247-.094,1.287,1.287,0,0,0,.464-1.368,3.525,3.525,0,0,1,.045-1.911,1.479,1.479,0,0,1,.346-.544,1.255,1.255,0,0,1,.331-.222,1.407,1.407,0,0,1,.821-.132,1.568,1.568,0,0,1,1.106.887,3.529,3.529,0,0,1,.3,1.414,21.006,21.006,0,0,1-.961,6.329q-.085.314-.177.626c-.046.16-.13.365-.026.521a.412.412,0,0,0,.192.143.73.73,0,0,0,.793-.277,11.248,11.248,0,0,0,2.625-4.506,14.251,14.251,0,0,0,.5-1.885,8.124,8.124,0,0,0,.1-2.8" transform="translate(-153.84 -256.035)"/><path class="b" d="M265.477,253.1a.542.542,0,0,0-.593-.515,2.848,2.848,0,0,0-.886.274,36.468,36.468,0,0,1-17.652,1.638c-1-.142-2.013-.34-3.02-.493-.628-.1-1.251-.237-1.887-.284a2.306,2.306,0,0,0-1.651.31,1.688,1.688,0,0,0-.21,2.029,4.6,4.6,0,0,0,1.8,1.705,4.4,4.4,0,0,0,2.352.789q3.352-.211,6.686-.635c3.787-.483,7.757-.939,11.315-2.381a14.327,14.327,0,0,0,3.308-1.822c.179-.133.441-.355.441-.614" transform="translate(-145.161 -248.852)"/><path class="c" d="M260.857,247.174a2.182,2.182,0,0,0,4.363,0,1.2,1.2,0,0,0-.117-.514c-.188-.388-.4-.578-.375-1.045.028-.629-.794-.638-1.237-.638a3.26,3.26,0,0,0-1.43.28,2.2,2.2,0,0,0-.858.756,2.138,2.138,0,0,0-.346,1.111v.049" transform="translate(-156.453 -244.797)"/></g></g></svg>