<svg xmlns="http://www.w3.org/2000/svg" width="28" height="28" viewBox="0 0 28 28"><defs><style>.a{fill:none;}.b{fill:#ffb200;}</style></defs><g transform="translate(12.82 0.82)"><rect class="a" width="28" height="28" transform="translate(-12.82 -0.82)"/><g transform="translate(10.18 2.18)"><path class="b" d="M31.651,10.151l-5.718,2.306-.89,1.665a.251.251,0,0,1-.035-.013l-2.019,3.828a4.572,4.572,0,0,1,4.337,4.424,4.6,4.6,0,0,1-4.74,4.443,4.593,4.593,0,0,1-4.73-4.443,4.54,4.54,0,0,1,4.079-4.392L19.867,14.08l-.9-1.69-5.724-2.306v4.17l3.3,1.474A8.411,8.411,0,0,0,13.2,22.361c0,4.757,4.113,8.614,9.184,8.614a8.911,8.911,0,0,0,9.183-8.614A8.4,8.4,0,0,0,28.335,15.8l3.316-1.479Z" transform="translate(-31.204 -9.453)"/><path class="b" d="M17.919,9.469l4.5,2.385L26.832,9.5l-4.493,8.322Z" transform="translate(-31.086 -9.469)"/></g></g></svg>