<svg xmlns="http://www.w3.org/2000/svg" width="28" height="28" viewBox="0 0 28 28"><defs><style>.a{fill:none;}.b{fill:#108dc7;}</style></defs><g transform="translate(-0.18 0.82)"><rect class="a" width="28" height="28" transform="translate(0.18 -0.82)"/><g transform="translate(-136.5 63.157)"><path class="b" d="M61.528,103.554a6.521,6.521,0,0,0-1.514.178,3.317,3.317,0,0,1-.241,3.184,3.052,3.052,0,1,1-1.428,4.736v4.255a6.446,6.446,0,0,0,3.183.836,6.595,6.595,0,0,0,0-13.189" transform="translate(93.638 -157.674)"/><path class="b" d="M44.99,113.282a3.042,3.042,0,0,1-2.575-4.63,7.257,7.257,0,0,1-.989-4.037,6.6,6.6,0,0,0,2.785,12.558,6.446,6.446,0,0,0,3.184-.836v-4.255a3.009,3.009,0,0,1-2.4,1.2" transform="translate(102.006 -158.103)"/><path class="b" d="M58.224,99.357a6.732,6.732,0,1,0-12.542,4.394,3,3,0,0,1,3.194-.818,3.292,3.292,0,0,1,2.719-5.1,3.235,3.235,0,0,1,2.672,1.42,7.182,7.182,0,0,1,3.956.1" transform="translate(99.095 -153.691)"/></g></g></svg>