<svg xmlns="http://www.w3.org/2000/svg" width="28" height="28" viewBox="0 0 28 28"><defs><style>.a{fill:none;}.b{fill:#6bacd2;}.c{fill:#aace8e;}.d{fill:#299527;}.e{fill:#0060a1;}</style></defs><g transform="translate(-0.18 0.82)"><rect class="a" width="28" height="28" transform="translate(0.18 -0.82)"/><g transform="translate(7.18 1.964)"><path class="b" d="M183.289,354.76a3.436,3.436,0,0,1-1.733.567,2.828,2.828,0,0,1-2.8-2.647l2.9-1.7,4.513,1.986-2.877,1.8Z" transform="translate(-178.751 -332.823)"/><path class="c" d="M187.4,339.54l-2.159-.936c-.961-.423-1.873-.777-1.873-1.819a1.438,1.438,0,0,1,.429-1.107l4.563,1.978-1.128.643c-.315.188-.53.352-.53.591,0,.254.3.471.7.65Z" transform="translate(-181.138 -324.917)"/><path class="b" d="M189.568,318.241l-2.21,1.321c-.2.116-.461.3-.461.593,0,.33.513.583.966.794l-2.768-1.2c-.814-.355-1.63-.755-1.63-1.721a1.758,1.758,0,0,1,.312-1.019l5.982-3.6a2.661,2.661,0,0,1,1.413,2.293,2.814,2.814,0,0,1-1.6,2.534Z" transform="translate(-181.187 -313.414)"/><path class="c" d="M200.354,327.042l-.548.307-4.57-1.986,5.31-3.146a2.689,2.689,0,0,1,1.42,2.292,2.751,2.751,0,0,1-1.612,2.533Z" transform="translate(-187.269 -317.962)"/><path class="b" d="M196.726,340.1l2.7,1.17c1.014.445,1.324.97,1.324,1.632a1.381,1.381,0,0,1-.525,1.013l-4.545-1.985.767-.426c.653-.352.868-.566.868-.8s-.151-.406-.593-.6Z" transform="translate(-187.5 -327.201)"/><path class="d" d="M193.232,347.633a18.985,18.985,0,0,0-3.87-2.128l-6.89-3c-1.731-.759-2.881-1.771-2.881-3.474a3.354,3.354,0,0,1,1.872-3.116l.383-.237a1.438,1.438,0,0,0-.429,1.107c0,1.042.912,1.4,1.873,1.819l8.016,3.478c1.4.589,2.673,1.6,2.673,3.328a3.518,3.518,0,0,1-.747,2.223Z" transform="translate(-179.186 -324.917)"/><path class="e" d="M192.569,333.663l-.5.307a1.381,1.381,0,0,0,.525-1.014c0-.661-.311-1.187-1.324-1.631l-8.571-3.714c-1.731-.754-2.809-1.725-2.809-3.422a3.706,3.706,0,0,1,2.041-3.336,1.758,1.758,0,0,0-.312,1.019c0,.966.816,1.366,1.63,1.721l8.332,3.617c1.515.659,2.743,1.656,2.743,3.476a3.267,3.267,0,0,1-1.752,2.976Z" transform="translate(-179.339 -317.258)"/></g></g></svg>