<?xml version="1.0" encoding="utf-8"?>
<!-- Generator: Adobe Illustrator 24.0.3, SVG Export Plug-In . SVG Version: 6.00 Build 0)  -->
<svg version="1.1" id="Layer_1" xmlns="http://www.w3.org/2000/svg" xmlns:xlink="http://www.w3.org/1999/xlink" x="0px" y="0px"
	 viewBox="0 0 30 30" style="enable-background:new 0 0 30 30;" xml:space="preserve">
<style type="text/css">
	.st0{fill:#666666;}
</style>
<path id="chrome-brands" class="st0" d="M7.95,12.67l-4.62-7.1C6.21,1.99,10.53,0.02,14.95,0c5.68-0.02,10.88,3.17,13.44,8.24
	L15.97,7.58C12.45,7.38,9.11,9.36,7.95,12.67z M9.94,15c0,2.79,2.26,5.06,5.06,5.06s5.06-2.26,5.06-5.06S17.79,9.94,15,9.94
	C12.21,9.94,9.94,12.2,9.94,15C9.94,15,9.94,15,9.94,15z M28.99,9.6l-8.45,0.44c2.29,2.68,2.33,6.54,0.4,9.51l-6.78,10.43
	c2.91,0.16,5.81-0.53,8.33-1.99C28.99,24.24,31.62,16.37,28.99,9.6L28.99,9.6z M8.09,17.88L2.44,6.78C0.85,9.22,0,12.08,0,15
	c0,7.5,5.49,13.71,12.67,14.81l3.85-7.55C13.04,22.92,9.68,21.01,8.09,17.88L8.09,17.88z"/>
</svg>
