<?xml version="1.0" encoding="utf-8"?>
<!-- Generator: Adobe Illustrator 24.0.3, SVG Export Plug-In . SVG Version: 6.00 Build 0)  -->
<svg version="1.1" id="Layer_1" xmlns="http://www.w3.org/2000/svg" xmlns:xlink="http://www.w3.org/1999/xlink" x="0px" y="0px"
	 viewBox="0 0 30 30" style="enable-background:new 0 0 30 30;" xml:space="preserve">
<style type="text/css">
	.st0{fill:#666666;}
</style>
<path id="edge-brands" class="st0" d="M1.06,13.34l0.02-0.03v0.03H1.06z M28.94,14.28c0.07-2.58-0.53-5.13-1.74-7.41
	c-2.41-4.36-7.05-7-12.02-6.86C6.7,0,1.96,6.38,1.08,13.31C4.07,8.81,9.02,6,14.42,5.74c0,0,6.64,0,6.02,6.35H9.79
	c0.24-1.75,0.96-3.41,2.08-4.78c-6.02,2.47-8.91,9.35-6.44,15.37c1.2,2.92,3.52,5.24,6.44,6.44c4.83,1.51,10.06,1.05,14.54-1.29
	v-6.32c-4.9,3.42-16.4,3.69-16.48-4.09h19.01C28.94,17.42,28.94,14.28,28.94,14.28z"/>
</svg>
