<?xml version="1.0" encoding="utf-8"?>
<!-- Generator: Adobe Illustrator 24.0.3, SVG Export Plug-In . SVG Version: 6.00 Build 0)  -->
<svg version="1.1" id="Layer_1" xmlns="http://www.w3.org/2000/svg" xmlns:xlink="http://www.w3.org/1999/xlink" x="0px" y="0px"
	 viewBox="0 0 30 30" style="enable-background:new 0 0 30 30;" xml:space="preserve">
<style type="text/css">
	.st0{fill:#666666;}
</style>
<path id="firefox-brands" class="st0" d="M30,14.12c-0.01-0.09-0.01-0.19-0.01-0.28v-0.01l-0.02-0.28v-0.01
	c-0.08-0.84-0.23-1.68-0.44-2.49c0-0.01,0-0.01-0.01-0.01l-0.07-0.24c-0.01-0.01-0.01-0.03-0.01-0.04
	c-0.02-0.07-0.04-0.15-0.07-0.23c-0.01-0.01-0.01-0.04-0.01-0.05c-0.02-0.07-0.04-0.15-0.07-0.21c-0.01-0.02-0.01-0.04-0.02-0.06
	c-0.02-0.07-0.04-0.14-0.07-0.21l-0.02-0.07c-0.02-0.07-0.05-0.14-0.07-0.2c-0.01-0.02-0.01-0.04-0.02-0.06
	C29.05,9.6,29.03,9.52,29,9.46c-0.01-0.01-0.01-0.04-0.02-0.05c-0.03-0.07-0.06-0.14-0.09-0.21c0-0.01-0.01-0.01-0.01-0.02
	c-0.09-0.23-0.2-0.47-0.3-0.69l-0.02-0.04c-0.03-0.06-0.05-0.11-0.08-0.16c-0.01-0.03-0.03-0.07-0.04-0.09
	c-0.02-0.05-0.05-0.09-0.07-0.15C28.34,8,28.33,7.97,28.3,7.93c-0.03-0.04-0.05-0.09-0.07-0.14c-0.02-0.04-0.04-0.08-0.07-0.12
	c-0.02-0.04-0.05-0.09-0.07-0.13c-0.02-0.04-0.05-0.08-0.07-0.12C28,7.38,27.97,7.34,27.94,7.3c-0.02-0.04-0.05-0.08-0.07-0.12
	S27.82,7.1,27.8,7.07c-0.02-0.04-0.05-0.09-0.08-0.13c-0.02-0.04-0.05-0.07-0.07-0.11L27.56,6.7c-0.02-0.04-0.05-0.07-0.07-0.11
	c-0.03-0.04-0.07-0.09-0.09-0.14c-0.02-0.03-0.04-0.07-0.07-0.09L27.22,6.2c-0.02-0.03-0.04-0.05-0.06-0.08
	c-0.06-0.08-0.11-0.15-0.17-0.23c-0.44-0.57-0.91-1.11-1.43-1.61c-0.35-0.36-0.72-0.7-1.11-1.01c-0.24-0.21-0.49-0.41-0.76-0.6
	c-0.47-0.35-0.97-0.66-1.49-0.92c-0.15-0.08-0.29-0.15-0.44-0.23c-1.07-0.52-2.2-0.92-3.36-1.19c-0.12-0.02-0.23-0.05-0.34-0.07
	h-0.01C18,0.26,17.95,0.25,17.89,0.24C17.13,0.1,16.36,0.02,15.59,0h-0.64c-0.93,0.01-1.85,0.11-2.76,0.3
	c-2.04,0.43-3.83,1.29-5.03,2.36C7.1,2.73,7.05,2.77,7.02,2.8L6.99,2.83H7L6.99,2.83L7,2.83c0,0,0.01,0,0.01-0.01l0,0L7,2.83
	c0,0,0.01-0.01,0.01-0.01c0.89-0.53,2.12-0.97,3-1.19l0.36-0.09c0.02-0.01,0.05-0.01,0.07-0.01c0.1-0.02,0.2-0.04,0.31-0.07
	c0.01,0,0.04-0.01,0.05-0.01c3.89-0.71,8.04,0.46,10.93,3.21c0.62,0.59,1.17,1.26,1.63,1.99c1.84,2.98,1.67,6.74,0.23,8.95
	c-2.09,3.21-6.75,4.32-9.64,1.51c-0.97-0.94-1.53-2.23-1.55-3.58c-0.01-0.65,0.12-1.29,0.38-1.88c0.1-0.23,0.79-1.56,1.11-1.49
	c-0.79-0.17-2.28,0.16-3.32,1.71c-0.93,1.39-0.88,3.53-0.3,5.05c-0.37-0.75-0.61-1.55-0.73-2.38c-0.74-5,2.63-9.27,5.72-10.34
	C13.58,2.75,9.4,2.85,6.29,5.14C4.48,6.47,3.19,8.36,2.5,10.62c0.1-1.27,0.58-3.16,1.56-5.08C3.03,6.07,1.7,7.77,1.05,9.34
	c-0.95,2.27-1.27,4.98-0.97,7.56c0.02,0.2,0.04,0.39,0.07,0.58C1.35,24.59,7.54,30,14.98,30c8.31,0,15.05-6.74,15.05-15.06
	C30.02,14.67,30.02,14.39,30,14.12z"/>
</svg>
