<?xml version="1.0" encoding="utf-8"?>
<!-- Generator: Adobe Illustrator 24.0.3, SVG Export Plug-In . SVG Version: 6.00 Build 0)  -->
<svg version="1.1" id="Layer_1" xmlns="http://www.w3.org/2000/svg" xmlns:xlink="http://www.w3.org/1999/xlink" x="0px" y="0px"
	 viewBox="0 0 30 30" style="enable-background:new 0 0 30 30;" xml:space="preserve">
<style type="text/css">
	.st0{fill:#666666;}
</style>
<path id="opera-brands" class="st0" d="M18.98,1.98c-10.29,0-15.28,13.54-8.92,21.48c2.21,2.75,5.36,4.57,8.92,4.57
	c2.2,0,4.25-0.67,6.01-1.84c-2.75,2.46-6.31,3.82-10,3.81c-0.24,0-0.48,0-0.72-0.02C6.33,29.61,0,23.05,0,15C0,6.71,6.71,0,15,0
	h0.05c3.67,0.01,7.21,1.37,9.94,3.82C23.22,2.62,21.13,1.98,18.98,1.98L18.98,1.98z M25.14,26.03c-2.47,1.49-5.49,1.43-7.98-0.35
	c3.4-1.24,5.91-5.54,5.91-10.68c0-5.12-2.49-9.42-5.89-10.68c2.53-1.77,5.52-1.83,8.04-0.3c6.06,5.63,6.41,15.1,0.78,21.16
	C25.72,25.48,25.44,25.76,25.14,26.03z"/>
</svg>
