<?xml version="1.0" encoding="UTF-8"?>
<svg width="2114px" height="878px" viewBox="0 0 2114 878" version="1.1" xmlns="http://www.w3.org/2000/svg" xmlns:xlink="http://www.w3.org/1999/xlink">
    <!-- Generator: Sketch 57.1 (83088) - https://sketch.com -->
    <title>rs</title>
    <desc>Created with Sketch.</desc>
    <g id="Page-1" stroke="none" stroke-width="1" fill="none" fill-rule="evenodd">
        <g id="rs" transform="translate(-0.000000, 0.000000)" fill-rule="nonzero">
            <path d="M1413.20162,0.492249269 C1312.05043,0.492249269 1161.56224,73.213721 1161.56224,273.5058 C1161.56224,469.595675 1308.4578,548.996576 1407.32632,554.521696 L1701.11743,554.716242 C1713.23119,555.753823 1729.71577,560.967669 1729.71577,608.644525 C1729.71577,646.97018 1719.18432,664.401544 1694.71037,666.904709 C1694.71037,666.904709 889.28797,666.710162 791.65158,666.710162 C769.836436,635.323331 751.536097,609.059557 713.703293,554.703273 L880.507439,554.703273 C980.050385,554.703273 1128.10025,479.81585 1128.10025,273.49283 C1128.10025,163.314678 1084.91093,99.4774949 1048.7642,65.2632551 C977.754737,-1.699641 891.116707,-0.285936625 874.41165,0.673825977 L423.491834,0.479279504 C344.357581,0.406598174 274.097577,51.0912592 249.204134,126.20818 L0.106829359,877.55963 L222.278902,877.55963 L443.166968,211.367657 L880.507439,211.367657 C895.150304,211.484384 917.263753,211.873477 917.263753,273.5058 C917.263753,333.983814 894.398058,342.647617 877.226089,343.905684 L578.15628,343.827865 C520.946648,343.827865 472.673183,371.025462 448.964452,416.510428 C425.164934,462.008363 430.495507,517.194712 463.231194,564.054473 L681.525307,877.55963 L1701.11743,877.55963 C1799.27261,874.589554 1940.52632,800.571105 1940.52632,608.644525 C1940.52632,414.344477 1797.37903,343.827865 1701.11743,343.827865 L1413.20162,343.827865 C1372.39874,338.652929 1372.39874,291.313287 1372.39874,273.5058 C1372.39874,242.495092 1377.63853,213.520637 1415.79558,211.341717 L2044.03802,211.367657 C2067.52626,140.319284 2091.02748,69.6600054 2113.90614,0.479279504 L1413.20162,0.479279504 L1413.20162,0.492249269 L1413.20162,0.492249269 Z" id="Path" fill="#343A40"></path>
            <path d="M1413.20162,90.3078711 C1411.5804,90.3078711 1251.33896,92.3960032 1251.33896,273.5058 C1251.33896,453.759592 1410.67252,464.783893 1412.37156,464.874681 L1701.1304,464.91359 C1705.91625,464.93953 1819.47951,467.377846 1819.47951,608.644525 C1819.47951,750.404055 1705.4623,756.344207 1700.5727,756.525784 L744.75291,756.486875 L562.540684,494.834838 C557.897508,488.07759 555.290585,481.670526 555.290585,476.871713 C555.233135,475.348146 555.577555,473.836279 556.289257,472.487933 C558.727573,467.792878 567.119011,464.90062 578.18222,464.90062 L880.507439,464.90062 C882.11569,464.90062 1038.31057,462.682791 1038.31057,273.49283 C1038.31057,210.758078 1021.07375,162.666189 987.054058,130.591961 C941.218909,87.3118554 882.102721,90.1652037 879.586586,90.3208409 L423.478864,90.2949013 C382.36471,90.2949013 347.437133,115.547034 334.467368,154.560086 L94.7472037,877.55963 L127.625558,877.55963 L364.064372,164.391168 C372.831933,137.958787 395.632779,121.565004 423.478864,121.565004 L880.507439,121.565004 C881.817386,121.487186 930.090851,119.502812 965.939281,153.600324 C993.227666,179.526884 1007.04047,219.875822 1007.04047,273.5058 C1007.04047,430.919836 885.617527,433.591608 880.416651,433.630517 L578.15628,433.630517 C546.043143,433.630517 533.306834,448.93484 528.585839,458.039615 C523.774056,467.15736 518.521302,486.391521 536.899458,512.694204 L728.423976,787.769947 L1701.1304,787.769947 C1703.10181,787.692129 1850.76258,781.168337 1850.76258,608.644525 C1850.76258,435.653801 1702.64787,433.630517 1701.1304,433.630517 L1413.21459,433.630517 C1408.77893,433.332213 1282.635,423.799436 1282.635,273.5058 C1282.635,124.081139 1407.94887,121.565004 1413.26647,121.565004 L2073.79066,121.565004 C2077.30546,111.111374 2080.72948,100.709623 2084.1535,90.2949013 L1413.20162,90.2949013 L1413.20162,90.3078711 L1413.20162,90.3078711 Z" id="Path" fill="#F7F7F7"></path>
        </g>
    </g>
</svg>